<?xml version="1.0" standalone="no"?>
<!DOCTYPE svg PUBLIC "-//W3C//DTD SVG 20010904//EN"
 "http://www.w3.org/TR/2001/REC-SVG-20010904/DTD/svg10.dtd">
<svg version="1.0" xmlns="http://www.w3.org/2000/svg"
 width="1088.000000pt" height="960.000000pt" viewBox="0 0 1088.000000 960.000000"
 preserveAspectRatio="xMidYMid meet">
<metadata>
Created by potrace 1.16, written by Peter Selinger 2001-2019
</metadata>
<g transform="translate(0.000000,960.000000) scale(0.100000,-0.100000)"
fill="white" fill-opacity="0.3" stroke="none">
<path d="M30 9592 c0 -5 10 -14 23 -21 51 -29 106 -135 107 -207 1 -81 -81
-220 -140 -239 -23 -7 -29 -65 -7 -65 28 0 106 63 141 113 43 63 71 163 62
225 -7 55 -36 121 -73 167 -24 30 -34 35 -70 35 -24 0 -43 -4 -43 -8z"/>
<path d="M230 9596 c0 -2 12 -30 28 -62 24 -53 27 -70 27 -169 0 -100 -3 -116
-29 -172 -42 -93 -179 -213 -241 -213 -11 0 -15 -10 -15 -36 0 -41 6 -41 99 5
221 107 310 369 210 619 -11 27 -19 32 -46 32 -18 0 -33 -2 -33 -4z"/>
<path d="M770 9591 c0 -5 9 -13 20 -16 32 -10 87 -91 100 -146 24 -100 -14
-219 -88 -275 -48 -37 -124 -64 -180 -64 -203 0 -394 -152 -447 -357 -42 -161
3 -323 124 -443 188 -187 455 -188 660 -4 77 69 118 160 136 302 17 127 36
174 96 232 162 157 452 33 453 -194 1 -145 -120 -275 -254 -276 -68 0 -171
-25 -231 -55 -146 -75 -259 -252 -259 -411 0 -246 -295 -372 -463 -199 -56 57
-78 112 -87 218 -9 104 -27 160 -71 229 -55 85 -162 166 -256 193 -20 6 -23 3
-23 -23 0 -27 6 -33 63 -60 73 -34 152 -108 184 -173 26 -52 38 -104 52 -216
6 -45 20 -100 31 -123 68 -133 206 -202 355 -178 161 25 258 140 277 330 15
152 65 247 168 323 69 50 129 71 230 80 113 10 179 36 238 93 75 74 97 128 97
242 0 80 -4 103 -24 144 -54 109 -161 177 -288 184 -64 4 -80 1 -136 -26 -80
-37 -135 -86 -171 -152 -22 -41 -30 -71 -37 -152 -11 -134 -47 -214 -133 -296
-85 -82 -148 -106 -281 -106 -92 -1 -105 1 -167 31 -223 105 -306 381 -176
585 44 71 129 143 196 168 32 13 95 25 147 29 112 9 187 42 244 107 108 123
120 281 29 414 -32 48 -35 49 -80 50 -27 0 -48 -4 -48 -9z"/>
<path d="M1096 9547 c-36 -53 -42 -74 -66 -237 -13 -93 -46 -165 -101 -225
-76 -83 -162 -120 -305 -134 -192 -19 -312 -136 -322 -316 -5 -108 21 -179 92
-251 72 -71 143 -97 251 -92 94 5 143 27 215 94 63 59 90 124 100 241 6 71 15
108 39 158 103 221 353 306 573 194 61 -31 136 -113 171 -186 30 -63 32 -76
32 -173 0 -97 -2 -110 -31 -170 -41 -87 -116 -163 -199 -202 -52 -24 -86 -32
-165 -38 -116 -9 -173 -32 -237 -96 -152 -152 -130 -404 45 -515 57 -36 94
-46 206 -58 108 -11 199 -53 272 -125 75 -75 103 -142 115 -267 11 -121 36
-183 100 -249 106 -109 287 -129 418 -46 132 85 185 267 120 407 -61 130 -157
192 -325 208 -122 11 -195 44 -265 118 -90 95 -124 186 -117 317 7 143 88 265
221 337 60 33 65 34 177 34 109 0 119 -2 183 -32 141 -67 209 -172 232 -358
21 -173 73 -251 205 -313 111 -53 259 -27 358 63 63 56 92 126 108 255 16 130
50 208 123 279 72 70 142 100 272 116 130 16 198 45 254 107 124 137 120 336
-9 462 -73 71 -124 91 -231 91 -79 0 -97 -4 -142 -28 -75 -39 -115 -78 -152
-147 -27 -50 -35 -79 -41 -153 -11 -119 -22 -153 -71 -227 -48 -71 -109 -120
-187 -152 -83 -33 -236 -33 -307 0 -80 36 -125 73 -172 135 -124 168 -105 400
43 538 88 82 145 106 280 119 116 11 186 42 248 111 105 117 116 283 26 414
-29 42 -34 45 -75 45 -25 0 -45 -2 -45 -5 0 -3 17 -21 39 -40 107 -97 108
-278 1 -385 -53 -53 -103 -72 -206 -81 -250 -21 -431 -194 -451 -431 -23 -272
191 -508 460 -508 173 0 339 96 416 240 42 79 50 106 60 216 10 104 30 151 88
205 53 51 97 71 168 76 124 10 245 -71 279 -188 20 -66 20 -92 1 -156 -18 -60
-87 -142 -142 -168 -20 -10 -76 -22 -123 -27 -47 -4 -108 -15 -137 -23 -116
-34 -250 -159 -294 -275 -12 -30 -26 -93 -31 -140 -14 -122 -32 -167 -92 -225
-98 -97 -250 -105 -362 -20 -42 32 -94 136 -94 189 0 63 -27 175 -56 234 -135
276 -514 342 -742 128 -199 -186 -188 -532 22 -699 85 -67 159 -96 286 -112
91 -11 121 -19 159 -42 91 -56 144 -179 122 -284 -14 -62 -23 -80 -69 -131
-98 -109 -262 -117 -375 -18 -57 50 -83 112 -96 225 -16 149 -52 225 -148 316
-88 84 -192 129 -298 129 -113 0 -220 61 -267 154 -32 63 -36 159 -8 224 44
102 153 172 269 172 165 1 323 105 404 268 42 85 42 85 42 201 0 113 -1 118
-37 194 -120 251 -411 350 -650 220 -63 -34 -156 -127 -190 -190 -35 -63 -58
-152 -58 -223 0 -100 -62 -199 -152 -244 -65 -33 -171 -36 -233 -7 -47 21
-120 98 -141 146 -24 57 -18 163 12 223 46 92 136 151 231 152 125 0 237 44
323 126 107 101 144 181 156 329 8 99 35 164 85 210 22 19 39 37 39 40 0 3
-20 5 -44 5 -41 0 -45 -3 -80 -53z"/>
<path d="M1520 9595 c0 -3 18 -22 41 -42 57 -52 70 -83 85 -208 11 -86 21
-125 49 -183 60 -126 175 -221 310 -257 234 -61 482 82 560 323 25 78 17 236
-16 314 -23 56 -25 58 -61 58 -37 0 -37 0 -7 -57 58 -117 56 -273 -6 -379
-137 -234 -437 -283 -631 -102 -87 82 -121 152 -134 279 -11 109 -18 132 -63
207 -31 51 -32 52 -79 52 -26 0 -48 -2 -48 -5z"/>
<path d="M1720 9593 c0 -3 11 -29 26 -58 18 -37 28 -81 35 -151 17 -166 72
-260 187 -316 58 -29 76 -33 147 -33 67 0 90 5 143 29 72 33 124 86 158 160
50 109 39 222 -29 322 -31 45 -37 49 -80 52 -26 2 -47 1 -47 -1 0 -2 22 -26
49 -53 49 -50 81 -121 81 -184 0 -90 -69 -199 -154 -242 -91 -46 -214 -31
-294 38 -60 51 -91 121 -101 230 -4 53 -18 116 -32 152 -22 58 -26 62 -56 62
-18 0 -33 -3 -33 -7z"/>
<path d="M3343 9572 c-48 -65 -65 -115 -73 -212 -12 -131 -39 -197 -114 -278
-75 -82 -155 -117 -298 -132 -110 -11 -178 -41 -236 -104 -71 -77 -87 -118
-87 -226 0 -111 21 -167 90 -235 68 -69 124 -90 235 -90 111 0 161 20 235 92
63 63 86 118 97 229 10 113 36 187 88 253 48 61 89 92 165 128 53 25 71 28
160 28 93 0 105 -3 170 -34 85 -42 162 -116 198 -192 98 -208 17 -444 -187
-545 -61 -30 -89 -37 -168 -44 -119 -10 -179 -35 -246 -103 -73 -74 -97 -132
-97 -232 1 -98 29 -167 96 -234 62 -62 125 -88 240 -99 118 -11 204 -48 279
-118 73 -69 107 -144 125 -281 22 -171 76 -257 194 -311 76 -35 203 -37 273
-5 157 72 237 259 178 415 -49 131 -164 211 -320 224 -146 12 -231 56 -315
161 -157 199 -86 502 144 616 62 30 71 32 181 32 107 0 119 -2 175 -29 80 -39
158 -119 195 -198 22 -48 31 -86 38 -164 10 -118 32 -172 96 -237 23 -24 69
-57 101 -73 158 -77 365 1 437 163 11 24 26 92 34 150 32 247 154 368 400 398
160 20 246 73 305 187 30 58 38 186 15 254 -71 215 -343 293 -518 151 -78 -63
-115 -143 -128 -272 -17 -167 -88 -282 -211 -344 -169 -84 -345 -62 -473 59
-227 215 -149 582 147 688 23 8 80 18 127 22 198 17 330 151 330 334 0 75 -18
131 -61 191 -31 43 -35 45 -82 45 -51 0 -51 0 -7 -37 188 -161 66 -473 -184
-473 -286 0 -517 -287 -452 -563 32 -134 97 -232 201 -299 138 -90 306 -103
447 -36 119 57 213 156 254 268 8 25 19 88 24 140 9 109 28 155 87 211 52 50
96 70 163 76 167 15 319 -137 295 -295 -10 -64 -46 -131 -95 -176 -53 -48 -96
-66 -157 -66 -73 0 -177 -26 -236 -57 -66 -36 -164 -134 -200 -200 -31 -59
-56 -163 -57 -238 -1 -92 -67 -187 -159 -228 -61 -27 -160 -27 -221 0 -92 41
-160 150 -160 256 0 58 -27 154 -63 221 -88 166 -292 267 -477 237 -343 -55
-511 -442 -319 -731 80 -119 195 -183 367 -204 131 -16 184 -42 237 -114 64
-88 70 -197 18 -293 -81 -151 -273 -185 -409 -74 -61 50 -90 118 -103 238 -26
255 -187 411 -450 438 -64 7 -109 18 -141 34 -160 81 -197 287 -75 423 55 61
99 79 220 92 51 5 118 19 149 31 198 74 329 297 296 504 -36 227 -236 404
-457 405 -268 1 -481 -218 -483 -495 0 -22 -10 -60 -21 -85 -93 -207 -388
-216 -491 -15 -25 48 -34 145 -19 202 28 102 148 193 255 193 154 0 310 83
394 210 51 75 70 136 82 258 10 106 35 160 97 211 38 31 38 31 -13 31 -43 0
-53 -4 -71 -28z"/>
<path d="M3788 9560 c61 -59 82 -108 92 -214 14 -145 52 -230 141 -317 186
-183 460 -184 651 -1 102 97 143 194 142 337 -1 75 -6 102 -30 163 -27 69 -30
72 -61 72 -18 0 -33 -2 -33 -4 0 -2 14 -33 30 -68 59 -127 49 -265 -29 -386
-46 -70 -99 -118 -168 -149 -154 -71 -326 -47 -442 62 -91 85 -141 191 -141
300 0 69 -22 137 -62 197 -32 46 -35 48 -83 48 -49 0 -49 0 -7 -40z"/>
<path d="M3950 9595 c0 -3 11 -27 24 -53 29 -59 34 -79 45 -190 15 -143 73
-232 190 -290 48 -23 68 -27 141 -27 73 0 92 4 138 28 118 62 181 154 189 275
5 80 -11 138 -58 210 -33 51 -35 52 -81 52 -53 0 -61 -10 -24 -30 30 -15 79
-83 94 -129 22 -62 15 -132 -19 -200 -81 -162 -294 -202 -422 -77 -63 61 -78
95 -92 215 -7 58 -22 132 -34 164 -21 54 -24 57 -57 57 -19 0 -34 -2 -34 -5z"/>
<path d="M5573 9572 c-49 -66 -65 -115 -73 -214 -6 -77 -14 -111 -38 -163 -72
-153 -217 -245 -387 -245 -106 0 -224 -80 -281 -190 -25 -48 -29 -66 -29 -140
0 -71 4 -94 26 -141 32 -68 83 -120 152 -156 46 -25 63 -28 147 -28 113 0 163
20 236 92 67 67 84 109 99 240 11 91 20 129 44 178 86 173 302 266 480 205
124 -42 205 -113 259 -228 24 -50 27 -69 27 -162 0 -94 -3 -111 -28 -164 -50
-108 -132 -187 -229 -222 -24 -9 -84 -19 -134 -24 -110 -10 -166 -32 -232 -94
-122 -114 -145 -284 -56 -418 64 -97 179 -158 295 -158 61 0 159 -32 213 -70
115 -79 170 -183 185 -351 13 -140 67 -226 175 -279 215 -106 461 26 483 261
6 59 -15 150 -44 198 -63 102 -141 146 -293 166 -129 17 -197 44 -264 105
-128 118 -170 298 -106 463 30 80 113 167 198 209 64 31 72 33 182 33 107 0
119 -2 173 -29 74 -38 160 -128 197 -209 23 -48 32 -87 39 -161 15 -159 72
-246 200 -304 45 -21 71 -26 133 -25 67 0 88 5 143 32 106 53 185 167 185 270
0 119 59 262 138 331 68 60 140 90 246 102 154 17 238 59 299 151 49 72 60
116 55 206 -11 175 -135 298 -312 309 -131 8 -247 -60 -308 -181 -24 -49 -32
-80 -39 -159 -13 -151 -72 -258 -181 -328 -167 -108 -376 -88 -517 49 -153
149 -159 412 -13 564 86 90 161 124 298 137 147 13 236 69 297 185 29 54 32
68 32 150 0 76 -4 97 -24 135 -48 90 -59 100 -115 100 -51 0 -51 0 -13 -31 20
-17 49 -52 65 -77 23 -41 27 -58 27 -127 0 -90 -18 -134 -76 -193 -52 -53
-102 -73 -203 -82 -177 -17 -287 -79 -375 -211 -129 -193 -99 -447 70 -603
232 -215 599 -147 739 137 36 72 42 95 49 183 11 120 29 163 99 226 102 91
239 92 348 3 149 -122 116 -369 -61 -451 -28 -14 -69 -24 -95 -24 -272 -2
-490 -219 -490 -489 0 -91 -75 -197 -167 -237 -47 -20 -145 -23 -197 -5 -91
31 -176 149 -176 243 0 72 -18 146 -56 224 -78 166 -284 280 -462 258 -200
-25 -346 -147 -404 -338 -17 -55 -20 -86 -16 -161 6 -116 41 -198 120 -281
102 -108 169 -141 314 -154 106 -9 166 -32 217 -84 61 -61 82 -110 82 -196 0
-88 -19 -132 -86 -197 -127 -126 -356 -81 -427 85 -12 26 -24 84 -28 127 -12
145 -53 233 -151 326 -90 86 -160 116 -302 130 -59 5 -111 17 -138 30 -85 41
-153 150 -153 244 0 57 29 131 70 177 54 62 111 87 223 97 214 21 369 140 428
331 54 175 2 363 -136 489 -144 131 -336 157 -521 70 -71 -33 -163 -125 -207
-207 -31 -56 -56 -162 -57 -232 -1 -86 -62 -179 -145 -222 -25 -14 -67 -23
-112 -26 -64 -4 -79 -1 -127 22 -141 69 -194 232 -122 374 45 90 135 142 242
142 114 0 273 74 350 164 70 81 102 164 114 299 9 107 33 162 90 210 16 14 30
28 30 31 0 3 -19 6 -43 6 -36 0 -47 -5 -64 -28z"/>
<path d="M5980 9595 c0 -3 19 -22 42 -43 55 -49 77 -102 87 -214 11 -106 28
-161 72 -230 96 -149 296 -240 464 -211 304 52 481 369 364 651 -20 48 -24 52
-55 52 -19 0 -34 -2 -34 -5 0 -3 11 -27 25 -54 78 -154 45 -342 -82 -469 -155
-156 -418 -157 -573 -1 -72 72 -110 158 -121 271 -11 109 -19 135 -61 206 -32
51 -33 52 -80 52 -26 0 -48 -2 -48 -5z"/>
<path d="M6180 9593 c0 -3 12 -30 26 -58 18 -38 28 -80 34 -146 12 -117 22
-151 61 -209 96 -141 271 -186 424 -111 73 36 118 83 153 161 49 105 39 215
-29 318 -33 51 -35 52 -81 52 -27 0 -48 -3 -48 -7 1 -5 15 -17 33 -28 38 -24
85 -112 93 -176 13 -99 -54 -222 -148 -270 -91 -46 -217 -31 -295 36 -61 52
-90 121 -102 235 -5 57 -19 118 -33 153 -21 53 -25 57 -55 57 -18 0 -33 -3
-33 -7z"/>
<path d="M7787 9556 c-38 -60 -57 -120 -57 -177 0 -201 -124 -364 -315 -414
-33 -8 -81 -15 -107 -15 -108 0 -224 -74 -284 -182 -26 -48 -29 -62 -29 -148
0 -111 22 -167 90 -236 68 -68 124 -89 235 -89 87 0 100 3 148 30 71 39 146
122 165 182 8 27 18 86 21 133 20 297 323 475 589 345 72 -36 159 -126 195
-202 24 -52 27 -70 27 -163 0 -98 -2 -109 -33 -172 -71 -145 -185 -221 -354
-237 -124 -12 -182 -37 -251 -109 -69 -74 -92 -132 -92 -237 0 -96 25 -155 93
-223 62 -63 130 -90 246 -101 243 -23 382 -167 400 -415 10 -138 69 -232 180
-286 195 -96 412 0 473 209 31 106 2 219 -78 306 -60 65 -122 94 -227 106 -48
5 -105 14 -127 20 -105 28 -214 122 -263 226 -24 52 -27 69 -27 168 0 99 3
116 27 168 33 71 112 155 178 191 74 40 175 59 255 46 79 -13 104 -23 175 -72
110 -75 166 -179 179 -332 9 -110 33 -169 94 -230 56 -56 115 -86 184 -96 148
-20 287 50 348 175 18 37 29 81 36 149 19 187 88 295 234 368 61 31 77 35 189
47 102 12 158 36 215 91 64 62 94 130 99 227 4 75 2 87 -25 146 -37 79 -89
131 -162 166 -47 22 -70 26 -141 26 -73 0 -92 -4 -138 -28 -128 -67 -178 -146
-191 -304 -12 -135 -46 -207 -135 -291 -89 -83 -149 -105 -281 -106 -88 -1
-107 2 -158 26 -66 31 -158 114 -194 175 -130 223 -7 523 246 597 30 9 81 16
112 16 121 0 227 67 290 182 32 59 34 69 34 153 0 75 -4 97 -24 135 -48 90
-60 100 -115 100 -50 0 -50 0 -6 -37 138 -119 113 -349 -49 -436 -39 -22 -73
-31 -139 -37 -153 -16 -235 -51 -322 -139 -257 -260 -145 -680 209 -785 157
-46 327 2 456 129 87 85 135 196 135 312 0 81 32 152 94 211 57 54 101 72 177
72 236 0 359 -287 196 -459 -42 -44 -121 -81 -175 -81 -58 0 -178 -28 -227
-52 -96 -48 -196 -160 -234 -262 -11 -30 -24 -97 -30 -149 -11 -110 -31 -157
-90 -210 -56 -50 -104 -69 -181 -70 -77 0 -139 24 -188 73 -51 51 -72 103 -83
200 -14 141 -51 231 -126 311 -247 265 -678 173 -792 -168 -27 -82 -28 -208
-2 -292 37 -121 156 -248 273 -293 29 -11 94 -24 145 -29 51 -4 109 -15 129
-24 90 -37 156 -125 170 -226 14 -101 -52 -221 -150 -271 -93 -48 -216 -30
-299 42 -61 54 -86 111 -97 223 -14 144 -40 207 -122 293 -95 100 -178 140
-323 154 -110 11 -157 29 -213 83 -177 172 -47 466 207 467 153 1 320 106 393
247 48 92 62 157 55 259 -9 157 -105 304 -246 378 -210 110 -471 47 -602 -145
-55 -81 -77 -147 -87 -263 -8 -80 -14 -104 -38 -143 -58 -94 -148 -139 -259
-130 -180 14 -288 186 -228 362 34 101 145 175 260 175 114 0 276 76 347 164
70 84 116 210 116 316 0 69 33 143 83 187 21 18 37 35 37 38 0 3 -21 5 -47 5
-46 -1 -49 -3 -76 -44z"/>
<path d="M8210 9595 c0 -3 18 -21 39 -41 54 -48 79 -104 87 -194 12 -152 55
-250 147 -337 119 -113 281 -157 432 -118 137 36 250 126 311 249 63 128 67
263 13 394 -20 48 -24 52 -55 52 -19 0 -34 -2 -34 -5 0 -3 11 -28 25 -54 53
-106 53 -249 -2 -360 -32 -66 -112 -150 -171 -180 -185 -94 -407 -44 -527 118
-48 66 -66 119 -76 227 -8 97 -22 139 -66 210 -27 41 -30 43 -75 44 -27 0 -48
-2 -48 -5z"/>
<path d="M8431 9542 c25 -48 32 -78 39 -161 11 -122 37 -188 100 -251 65 -65
138 -94 235 -94 141 0 245 66 302 191 50 108 40 218 -28 321 -33 51 -35 52
-81 52 -52 0 -61 -10 -25 -29 51 -29 106 -135 107 -207 1 -91 -68 -201 -154
-247 -32 -17 -58 -22 -121 -22 -69 0 -86 4 -126 27 -55 32 -103 85 -124 134
-8 20 -19 79 -24 133 -6 59 -18 118 -33 153 -22 56 -24 58 -60 58 -37 0 -37 0
-7 -58z"/>
<path d="M10020 9550 c-44 -69 -59 -114 -60 -182 0 -110 -54 -232 -133 -305
-75 -70 -186 -113 -289 -113 -121 0 -253 -95 -298 -215 -44 -119 -14 -262 75
-350 58 -58 125 -87 215 -93 96 -5 168 20 240 85 75 67 101 126 110 246 10
130 52 219 140 300 83 77 146 100 275 101 92 0 105 -2 165 -31 83 -39 161
-117 203 -203 30 -60 32 -72 32 -170 0 -99 -2 -110 -32 -171 -42 -85 -116
-159 -197 -199 -51 -25 -83 -33 -158 -40 -121 -10 -182 -36 -246 -104 -80 -84
-97 -125 -97 -231 0 -75 4 -97 24 -135 37 -71 70 -110 120 -141 56 -36 90 -45
206 -58 224 -26 365 -166 385 -383 10 -105 20 -144 49 -192 24 -38 105 -116
121 -116 5 0 10 14 10 30 0 22 -9 39 -34 61 -52 45 -75 102 -85 210 -15 149
-54 232 -154 327 -85 79 -155 109 -292 122 -108 11 -152 28 -210 81 -61 57
-89 125 -83 209 6 79 32 133 88 184 57 52 97 66 209 77 76 7 110 16 168 44
298 141 365 524 134 756 -191 190 -472 186 -668 -11 -73 -74 -111 -155 -124
-267 -20 -170 -53 -235 -147 -291 -41 -24 -57 -27 -132 -27 -99 0 -144 19
-202 83 -52 57 -72 117 -66 200 6 79 25 120 82 176 50 48 121 76 193 76 73 0
199 42 264 89 49 35 100 93 142 161 28 46 49 124 57 218 9 101 34 158 90 205
16 14 30 28 30 31 0 3 -20 6 -44 6 -42 0 -45 -2 -76 -50z"/>
<path d="M10440 9595 c0 -3 18 -21 39 -41 57 -51 80 -105 90 -215 10 -100 27
-159 63 -218 49 -79 134 -154 213 -187 35 -14 35 -14 35 19 0 30 -5 36 -41 52
-58 27 -142 114 -174 180 -19 42 -29 84 -37 159 -10 108 -29 164 -75 221 -24
30 -34 35 -70 35 -24 0 -43 -2 -43 -5z"/>
<path d="M10661 9542 c24 -46 32 -78 39 -150 12 -134 32 -185 99 -254 32 -32
62 -58 69 -58 7 0 12 13 12 30 0 22 -9 39 -34 61 -54 47 -77 106 -86 217 -5
64 -16 116 -31 154 -23 56 -25 58 -61 58 -38 0 -38 0 -7 -58z"/>
<path d="M10811 8287 c-240 -122 -319 -464 -157 -684 45 -62 119 -123 180
-148 46 -20 46 -20 46 13 0 22 -10 33 -51 57 -235 139 -272 449 -77 643 29 29
70 60 90 70 30 14 38 23 38 45 0 33 -11 34 -69 4z"/>
<path d="M2051 8199 c-70 -14 -127 -47 -180 -105 -62 -67 -85 -132 -84 -232 1
-93 33 -162 107 -229 63 -58 121 -80 243 -92 120 -13 199 -49 272 -126 226
-239 101 -627 -223 -686 -116 -22 -257 18 -338 96 -90 86 -125 160 -139 299
-15 145 -74 243 -180 301 -44 23 -69 30 -135 33 -111 6 -167 -14 -243 -84 -76
-70 -101 -128 -112 -254 -20 -231 -168 -377 -403 -399 -121 -12 -186 -41 -250
-112 -57 -63 -86 -139 -86 -223 0 -77 18 -133 65 -196 119 -162 347 -179 493
-37 68 65 92 123 103 241 17 175 92 292 233 362 219 108 487 -2 566 -231 25
-73 27 -194 4 -262 -55 -163 -217 -283 -382 -283 -230 0 -391 -213 -326 -430
42 -143 144 -219 319 -238 111 -13 190 -41 255 -93 95 -75 139 -170 158 -336
15 -135 78 -230 187 -284 69 -33 207 -35 277 -2 165 76 240 277 165 438 -51
109 -172 195 -276 195 -255 0 -442 194 -429 444 5 102 37 175 108 250 94 100
213 142 354 125 87 -11 167 -50 231 -114 76 -76 105 -142 120 -273 19 -171 70
-254 193 -314 56 -28 77 -33 137 -33 96 1 163 26 229 85 71 66 102 135 115
263 12 120 40 186 111 261 51 54 140 109 195 120 17 3 69 10 117 15 103 12
168 41 222 102 122 134 123 323 2 456 -20 23 -63 53 -98 69 -54 25 -75 29
-148 29 -73 0 -92 -4 -138 -28 -121 -64 -178 -155 -192 -308 -15 -173 -87
-287 -228 -356 -73 -37 -80 -38 -182 -38 -99 0 -110 2 -172 33 -86 42 -177
137 -209 219 -18 45 -23 79 -23 153 -1 87 2 101 31 162 73 154 216 248 379
248 123 0 240 77 296 195 56 119 31 269 -60 363 -66 67 -122 91 -250 108 -247
32 -379 162 -401 395 -5 52 -16 112 -25 132 -42 101 -127 175 -231 202 -65 16
-79 17 -144 4z m171 -77 c107 -47 156 -120 168 -249 15 -161 39 -219 131 -318
88 -93 170 -133 309 -146 117 -12 174 -35 227 -91 105 -109 97 -293 -17 -391
-50 -42 -116 -67 -180 -67 -114 0 -247 -56 -329 -137 -105 -105 -156 -259
-134 -402 57 -370 495 -529 776 -281 97 86 143 181 157 325 12 134 60 217 155
268 54 29 183 31 235 3 170 -89 209 -292 84 -426 -59 -63 -110 -86 -210 -94
-152 -12 -260 -66 -350 -174 -63 -77 -99 -166 -109 -272 -9 -100 -21 -137 -60
-192 -64 -88 -198 -127 -309 -89 -49 17 -121 83 -147 134 -12 22 -24 77 -30
130 -18 155 -62 251 -155 336 -237 217 -596 147 -740 -143 -39 -80 -39 -80
-39 -200 0 -118 1 -123 36 -197 42 -88 118 -170 200 -217 67 -37 108 -49 227
-60 80 -8 99 -14 141 -42 96 -66 143 -177 121 -284 -45 -216 -298 -290 -455
-132 -58 59 -72 95 -86 229 -7 66 -18 109 -39 155 -33 71 -123 171 -188 209
-60 36 -155 63 -216 63 -89 0 -152 25 -211 84 -114 114 -113 277 2 388 51 50
95 66 207 78 146 15 234 57 328 157 79 85 118 187 118 308 0 141 -49 254 -152
350 -189 176 -472 165 -651 -24 -92 -98 -137 -204 -137 -326 0 -144 -120 -265
-264 -265 -81 0 -129 17 -182 63 -70 61 -89 106 -89 207 0 76 3 90 28 133 47
80 139 135 229 136 173 3 351 108 423 250 30 60 55 159 55 220 0 63 17 112 59
167 99 132 296 141 414 19 46 -48 64 -97 76 -212 24 -228 184 -402 399 -435
213 -33 434 98 507 302 82 229 -19 477 -238 585 -63 31 -89 38 -175 45 -75 7
-113 15 -150 34 -91 46 -142 132 -144 240 -3 198 194 328 374 248z"/>
<path d="M4283 8200 c-96 -20 -185 -88 -231 -175 -37 -72 -42 -188 -13 -266
49 -130 157 -203 324 -218 120 -12 200 -46 270 -115 61 -61 92 -116 113 -196
82 -319 -237 -596 -551 -479 -45 17 -76 39 -130 94 -86 85 -113 146 -124 275
-14 159 -91 272 -219 320 -46 18 -72 21 -137 18 -97 -6 -161 -34 -223 -102
-58 -62 -81 -122 -92 -230 -10 -106 -37 -184 -83 -243 -83 -103 -172 -148
-322 -162 -121 -12 -181 -38 -244 -107 -99 -108 -118 -244 -53 -376 54 -111
146 -169 280 -176 80 -4 86 -3 158 32 126 63 172 140 192 326 20 193 144 332
330 371 223 46 450 -114 482 -342 22 -155 -47 -311 -177 -400 -62 -43 -116
-60 -220 -70 -119 -10 -178 -36 -243 -105 -69 -73 -94 -130 -94 -219 0 -121
42 -212 128 -273 60 -43 111 -60 220 -72 109 -13 193 -48 261 -111 84 -77 120
-160 134 -304 13 -149 71 -238 190 -294 77 -36 200 -37 278 -2 62 28 136 102
166 169 34 73 31 198 -6 274 -30 61 -103 134 -162 162 -20 10 -78 22 -128 26
-101 10 -153 25 -221 65 -172 101 -243 337 -157 521 120 257 458 318 657 119
83 -83 109 -145 124 -293 10 -109 33 -162 96 -228 125 -128 326 -134 458 -13
68 62 95 123 111 257 30 240 158 368 400 397 170 21 254 76 313 204 21 45 26
71 26 131 0 127 -62 229 -176 291 -59 32 -69 34 -153 34 -75 0 -97 -4 -135
-24 -75 -39 -125 -86 -159 -150 -27 -50 -33 -77 -41 -161 -15 -176 -86 -287
-228 -358 -73 -36 -80 -37 -182 -37 -99 0 -110 2 -171 32 -161 79 -260 266
-231 432 16 88 58 168 121 231 82 82 173 119 292 120 82 0 142 25 207 85 86
79 107 128 107 245 0 111 -21 167 -90 235 -60 60 -120 86 -243 102 -125 16
-207 49 -276 113 -74 68 -126 197 -126 311 0 49 -32 135 -71 188 -66 93 -209
145 -326 121z m147 -66 c41 -12 67 -29 110 -72 63 -63 71 -86 89 -236 13 -113
49 -191 125 -274 81 -87 168 -129 296 -143 116 -12 171 -31 223 -78 111 -100
117 -281 14 -389 -50 -53 -99 -73 -202 -82 -108 -11 -182 -36 -265 -92 -144
-96 -223 -292 -186 -465 28 -137 94 -236 200 -305 149 -96 318 -103 481 -21
60 31 164 133 194 190 28 56 51 146 51 203 0 108 62 214 154 263 58 31 184 31
241 0 87 -46 155 -153 155 -243 0 -54 -30 -127 -71 -174 -56 -63 -116 -92
-209 -99 -160 -13 -280 -75 -368 -190 -57 -73 -81 -140 -97 -262 -14 -114 -33
-163 -86 -216 -40 -40 -130 -79 -183 -79 -98 0 -216 77 -251 162 -9 23 -21 82
-26 132 -12 106 -36 175 -90 255 -113 170 -355 242 -552 164 -192 -76 -309
-263 -294 -473 6 -94 36 -173 90 -243 100 -127 193 -176 367 -192 131 -12 209
-65 260 -176 61 -136 -28 -321 -174 -360 -62 -17 -157 -6 -208 24 -91 54 -132
125 -143 247 -14 166 -72 278 -187 365 -77 58 -154 85 -264 95 -138 12 -211
56 -265 160 -34 66 -33 167 3 236 50 96 147 154 258 154 269 0 493 267 450
538 -51 316 -389 493 -672 351 -163 -82 -267 -254 -268 -444 -1 -86 -66 -179
-155 -221 -132 -63 -292 -6 -361 128 -45 88 -22 230 49 301 58 58 107 79 207
88 146 13 227 47 313 131 95 94 134 180 147 324 9 102 30 153 86 210 81 81
203 98 313 43 98 -49 139 -117 151 -253 17 -191 108 -331 265 -406 182 -87
393 -52 534 89 230 230 164 610 -130 755 -65 32 -90 39 -177 46 -120 11 -161
29 -224 98 -50 57 -68 105 -68 185 0 90 40 165 115 217 74 51 145 61 235 34z"/>
<path d="M6500 8196 c-67 -14 -116 -43 -165 -98 -94 -104 -116 -241 -57 -361
61 -122 159 -183 317 -197 114 -10 183 -38 254 -105 74 -69 109 -131 128 -221
28 -138 -11 -269 -110 -368 -161 -161 -399 -167 -563 -14 -89 84 -123 155
-134 283 -14 159 -75 256 -199 317 -38 19 -63 23 -141 23 -114 0 -165 -21
-236 -97 -62 -66 -84 -122 -94 -232 -13 -152 -69 -259 -172 -329 -71 -48 -125
-66 -234 -77 -171 -16 -276 -97 -319 -245 -44 -150 25 -307 168 -382 46 -25
63 -28 147 -28 106 0 153 16 226 79 65 56 94 121 105 236 11 117 34 186 87
255 82 108 184 158 327 158 142 1 248 -52 329 -162 132 -179 96 -426 -81 -565
-73 -58 -125 -76 -238 -86 -118 -10 -179 -36 -245 -106 -72 -76 -94 -130 -94
-229 0 -98 28 -167 95 -234 62 -62 124 -88 244 -100 123 -14 202 -49 278 -124
72 -72 105 -142 118 -252 22 -189 67 -268 186 -327 61 -30 77 -33 153 -33 73
0 93 4 142 28 108 53 188 179 188 296 0 87 -53 198 -121 255 -58 49 -107 67
-204 77 -146 13 -225 49 -309 138 -69 75 -99 146 -104 252 -5 99 11 164 60
242 156 247 522 254 682 12 50 -74 64 -120 75 -236 7 -77 15 -109 37 -150 82
-150 274 -216 425 -147 124 57 185 147 200 296 17 162 73 269 178 339 76 52
133 71 243 82 145 14 231 70 290 190 33 67 33 215 0 283 -31 63 -96 126 -162
157 -46 22 -69 26 -140 26 -73 0 -92 -4 -138 -28 -128 -67 -179 -148 -192
-306 -10 -115 -30 -168 -91 -248 -81 -104 -208 -159 -349 -151 -236 14 -413
239 -373 473 15 85 44 143 104 210 82 88 185 135 300 135 88 0 163 32 230 99
75 76 103 146 97 251 -6 96 -37 159 -113 228 -63 58 -109 75 -248 91 -104 12
-172 41 -238 99 -87 78 -139 191 -139 302 0 153 -104 286 -255 325 -68 17 -81
18 -155 1z m157 -61 c28 -8 69 -32 94 -54 63 -55 90 -116 100 -222 15 -157 76
-277 181 -355 75 -55 150 -83 257 -95 108 -12 164 -32 213 -77 53 -48 80 -104
86 -178 13 -165 -108 -294 -277 -294 -155 -1 -318 -99 -399 -241 -177 -310 50
-699 408 -699 253 0 469 210 470 457 0 156 121 283 270 283 194 0 328 -202
250 -377 -46 -104 -116 -149 -264 -168 -118 -16 -192 -42 -258 -90 -52 -38
-119 -117 -149 -178 -24 -47 -49 -155 -49 -217 0 -90 -78 -198 -169 -238 -52
-22 -156 -20 -211 5 -98 43 -147 121 -161 254 -15 152 -59 248 -153 337 -138
130 -342 162 -515 81 -86 -40 -141 -86 -190 -160 -61 -92 -85 -179 -79 -294 4
-80 10 -104 40 -167 42 -89 75 -128 151 -185 69 -50 150 -78 262 -88 92 -8
148 -31 201 -83 54 -53 78 -113 78 -197 0 -80 -21 -132 -78 -188 -54 -55 -100
-72 -191 -72 -69 0 -86 4 -125 27 -97 57 -134 123 -149 268 -14 141 -50 218
-143 306 -88 85 -171 121 -303 133 -110 11 -175 40 -229 103 -88 102 -86 249
5 351 53 61 109 85 223 97 216 22 365 135 425 324 30 93 34 145 17 227 -32
153 -120 270 -252 335 -188 93 -391 59 -540 -90 -85 -85 -121 -162 -136 -288
-13 -117 -31 -171 -77 -221 -79 -88 -214 -113 -319 -61 -174 86 -203 309 -58
441 57 52 107 73 177 73 24 0 73 7 108 15 141 34 248 121 316 258 31 62 37 88
44 172 10 119 25 160 84 218 103 103 281 103 385 -1 48 -49 70 -105 81 -208
16 -150 64 -251 159 -334 145 -128 342 -153 519 -65 94 46 162 114 208 207 68
138 68 273 1 415 -74 155 -210 246 -392 264 -153 14 -229 60 -277 168 -30 68
-22 182 18 247 32 51 104 107 159 123 47 14 97 13 153 -4z"/>
<path d="M8730 8197 c-70 -16 -117 -45 -174 -108 -117 -130 -105 -332 25 -454
66 -62 122 -84 240 -94 80 -6 111 -14 163 -40 121 -59 203 -170 226 -303 30
-170 -70 -362 -225 -434 -164 -76 -343 -45 -470 81 -76 77 -104 140 -116 266
-12 124 -38 188 -101 251 -72 72 -126 93 -238 93 -111 0 -162 -19 -231 -88
-60 -60 -91 -133 -100 -237 -11 -133 -51 -223 -132 -297 -76 -70 -148 -99
-278 -113 -113 -11 -176 -39 -237 -104 -113 -120 -124 -300 -24 -431 28 -37
57 -60 112 -89 73 -37 77 -38 160 -34 100 5 167 34 230 99 61 63 82 118 91
231 9 121 41 196 116 278 61 67 134 105 231 122 178 30 352 -62 435 -231 30
-61 32 -72 32 -171 0 -97 -2 -110 -32 -172 -67 -142 -190 -224 -356 -238 -104
-9 -146 -21 -198 -59 -218 -158 -189 -474 54 -581 23 -10 83 -23 132 -29 104
-11 160 -29 227 -72 107 -69 164 -173 179 -326 15 -160 75 -256 198 -314 139
-65 330 -10 412 119 86 135 74 285 -31 405 -59 67 -126 98 -234 109 -101 10
-173 30 -226 63 -55 35 -129 120 -158 183 -24 51 -27 69 -27 167 0 99 3 116
27 168 35 74 123 167 190 199 111 54 257 55 367 1 62 -30 152 -116 182 -174
24 -48 49 -156 49 -216 0 -105 81 -223 190 -279 47 -24 67 -28 135 -28 98 0
171 30 237 96 63 63 87 120 99 233 11 112 35 180 89 251 71 94 178 147 328
162 108 11 161 34 225 99 74 73 92 120 92 233 0 111 -18 158 -87 229 -67 69
-135 96 -238 96 -73 0 -93 -4 -142 -28 -112 -55 -175 -156 -188 -302 -4 -49
-17 -114 -28 -143 -104 -271 -466 -350 -665 -146 -64 67 -84 98 -107 173 -39
123 -16 260 61 364 77 103 175 154 327 167 113 10 181 40 242 106 66 72 85
123 85 229 0 78 -4 97 -27 140 -60 115 -160 178 -301 190 -242 21 -384 163
-407 407 -10 109 -42 181 -105 242 -76 74 -197 107 -305 83z m166 -64 c32 -11
66 -34 100 -67 58 -58 84 -121 84 -200 0 -65 29 -170 62 -227 14 -24 53 -70
87 -102 82 -78 161 -113 288 -128 54 -6 116 -19 138 -28 98 -43 155 -124 163
-232 4 -63 2 -75 -27 -134 -18 -36 -48 -78 -69 -95 -42 -35 -116 -60 -176 -60
-59 0 -158 -26 -218 -56 -65 -33 -154 -123 -192 -193 -128 -239 -30 -529 219
-648 167 -79 358 -50 508 78 97 84 144 181 157 329 5 64 15 110 29 137 81 160
286 201 421 86 114 -98 122 -281 17 -392 -41 -42 -121 -81 -170 -81 -62 0
-187 -30 -241 -57 -73 -37 -170 -138 -206 -215 -31 -67 -50 -145 -50 -209 0
-63 -36 -143 -84 -187 -54 -49 -72 -59 -135 -73 -146 -31 -299 76 -316 221
-23 198 -53 278 -140 369 -150 157 -385 192 -574 84 -145 -84 -231 -233 -231
-402 0 -151 49 -265 154 -357 80 -70 156 -103 267 -115 128 -14 161 -24 211
-62 50 -38 95 -120 104 -188 15 -109 -60 -232 -168 -279 -100 -43 -220 -16
-300 67 -50 51 -67 97 -78 206 -5 51 -16 112 -25 137 -62 174 -248 309 -426
310 -201 0 -338 189 -270 371 41 108 148 179 270 179 241 2 451 217 451 462 0
224 -141 407 -357 463 -73 19 -141 19 -223 -1 -77 -18 -137 -51 -204 -113
-100 -95 -139 -177 -155 -335 -11 -108 -35 -162 -93 -211 -113 -96 -282 -86
-379 22 -53 58 -73 118 -67 201 6 77 24 118 76 170 53 53 104 74 199 83 45 4
106 14 136 23 99 29 207 117 267 218 34 58 51 120 60 221 6 76 14 107 34 141
52 88 134 135 236 136 154 0 259 -104 275 -275 14 -150 56 -244 146 -330 185
-177 463 -176 650 1 208 199 190 529 -38 709 -75 59 -146 85 -263 96 -190 18
-292 113 -293 273 -1 189 180 320 359 259z"/>
<path d="M0 5915 c0 -25 4 -35 15 -35 22 0 97 -78 119 -125 10 -21 23 -78 28
-125 15 -153 51 -235 144 -325 73 -72 170 -114 289 -126 69 -7 116 -18 152
-35 195 -93 205 -370 18 -480 -34 -19 -66 -28 -139 -34 -189 -18 -307 -87
-400 -233 -50 -80 -76 -222 -57 -322 24 -126 115 -262 219 -322 174 -102 401
-79 555 57 93 83 142 183 153 314 8 100 29 157 76 211 51 57 105 86 178 92
113 11 215 -48 266 -154 53 -108 28 -232 -65 -316 -53 -48 -95 -64 -183 -72
-184 -16 -295 -78 -387 -216 -49 -74 -70 -136 -81 -250 -10 -102 -31 -149 -93
-206 -106 -98 -266 -93 -370 11 -52 52 -75 109 -86 216 -21 212 -124 349 -313
416 -38 13 -38 13 -38 -21 0 -25 5 -35 15 -35 30 0 99 -42 153 -94 76 -72 111
-145 123 -259 11 -112 20 -145 53 -201 111 -189 379 -219 526 -60 56 61 80
118 90 222 17 166 75 274 183 345 67 44 130 64 240 75 152 16 251 86 298 211
70 184 -29 382 -220 437 -202 59 -421 -104 -421 -314 0 -161 -85 -299 -228
-370 -73 -36 -80 -37 -181 -37 -95 0 -112 3 -165 28 -117 54 -190 137 -227
258 -47 150 -1 310 123 424 72 67 140 93 268 105 118 10 177 37 243 110 137
152 107 392 -61 498 -61 38 -97 49 -210 61 -106 12 -174 39 -240 96 -88 77
-128 162 -142 300 -10 110 -32 166 -91 230 -36 39 -103 85 -124 85 -3 0 -5
-16 -5 -35z"/>
<path d="M10816 5889 c-116 -102 -145 -252 -75 -396 19 -40 110 -133 130 -133
5 0 9 15 9 33 0 25 -7 39 -28 54 -15 11 -40 44 -57 74 -24 45 -29 66 -30 124
0 59 5 78 30 123 16 30 42 64 57 77 19 17 28 33 28 54 0 17 -4 31 -9 31 -4 0
-29 -18 -55 -41z"/>
<path d="M0 5323 c0 -24 8 -31 58 -53 73 -31 159 -116 198 -195 27 -56 29 -68
29 -175 0 -108 -2 -119 -30 -175 -40 -80 -127 -166 -199 -195 -49 -21 -56 -27
-56 -52 0 -35 10 -35 88 2 71 34 162 115 199 178 137 233 45 549 -193 663 -78
37 -94 37 -94 2z"/>
<path d="M10178 5215 c-62 -20 -150 -101 -183 -170 -19 -38 -29 -79 -36 -151
-14 -151 -72 -260 -174 -328 -68 -45 -133 -66 -238 -76 -112 -11 -178 -42
-245 -114 -63 -70 -86 -139 -80 -240 6 -93 36 -159 99 -218 164 -154 433 -102
527 102 18 38 28 81 33 149 7 75 15 108 39 157 65 132 172 213 314 236 173 29
347 -65 429 -232 30 -60 32 -72 32 -170 0 -102 -1 -109 -38 -182 -70 -142
-181 -215 -348 -228 -155 -12 -247 -69 -314 -192 -54 -98 -43 -243 25 -336 61
-85 174 -142 281 -142 146 -1 291 -96 360 -236 24 -49 32 -82 39 -157 6 -68
15 -112 33 -150 25 -54 86 -125 126 -147 19 -10 21 -8 21 23 0 26 -10 44 -45
80 -50 53 -75 120 -75 204 0 105 -64 238 -154 321 -77 71 -203 122 -301 122
-104 0 -210 63 -258 154 -31 58 -31 184 0 241 51 96 153 155 269 155 61 0 156
27 216 63 55 32 149 131 177 185 137 269 -12 601 -306 677 -151 39 -306 -4
-431 -120 -96 -89 -152 -219 -152 -355 0 -48 -50 -150 -91 -184 -74 -63 -175
-83 -273 -54 -55 16 -148 109 -164 164 -28 95 -7 201 54 272 48 57 110 84 213
93 47 4 110 15 138 24 120 36 247 158 293 281 12 33 25 99 29 150 9 106 34
167 89 215 55 49 108 69 182 69 75 0 127 -20 184 -70 57 -50 83 -112 95 -221
15 -150 51 -229 143 -316 45 -42 141 -103 163 -103 3 0 5 15 5 33 0 28 -6 34
-43 51 -59 28 -143 115 -173 181 -17 36 -28 86 -35 149 -11 112 -27 161 -71
222 -77 108 -248 163 -369 120z"/>
<path d="M0 5176 c0 -25 5 -36 19 -41 37 -12 109 -100 125 -156 20 -66 20 -92
1 -156 -16 -54 -90 -147 -125 -158 -24 -8 -29 -65 -6 -65 27 0 112 67 143 114
42 61 57 115 56 197 -1 114 -71 227 -173 279 -40 20 -40 20 -40 -14z"/>
<path d="M10810 3825 c-101 -53 -181 -149 -219 -263 -37 -110 -25 -266 29
-372 41 -81 163 -188 234 -206 24 -6 26 -4 26 23 0 25 -6 33 -42 49 -99 45
-193 182 -207 304 -20 167 65 337 205 412 36 19 44 28 44 50 0 34 -11 34 -70
3z"/>
<path d="M2045 3736 c-76 -19 -120 -43 -165 -93 -114 -123 -125 -294 -28 -429
58 -81 165 -134 272 -134 240 -1 435 -233 396 -472 -21 -135 -128 -274 -245
-317 -160 -60 -334 -25 -446 90 -73 75 -108 156 -119 272 -10 106 -24 146 -71
211 -66 93 -177 142 -298 134 -79 -6 -135 -32 -201 -94 -61 -57 -90 -123 -100
-233 -14 -147 -52 -226 -150 -314 -65 -59 -140 -87 -258 -97 -71 -6 -106 -15
-149 -36 -244 -124 -244 -477 0 -593 84 -40 139 -47 218 -27 159 41 259 165
259 322 0 239 237 446 467 407 137 -24 256 -111 316 -232 27 -56 33 -79 35
-153 5 -102 -12 -165 -65 -246 -74 -112 -172 -169 -312 -182 -137 -13 -185
-32 -257 -104 -80 -80 -108 -150 -102 -251 7 -96 38 -164 104 -224 65 -59 131
-86 236 -95 240 -21 378 -158 400 -395 14 -158 74 -254 197 -312 69 -33 179
-37 253 -9 217 82 283 356 129 533 -51 58 -145 99 -249 108 -102 9 -153 25
-227 75 -65 43 -105 91 -143 171 -24 52 -27 69 -27 168 0 101 2 115 29 168 38
78 126 166 201 203 55 27 69 29 170 29 98 0 116 -3 168 -27 74 -35 156 -113
196 -188 26 -48 35 -82 46 -175 9 -73 22 -130 35 -156 33 -63 96 -126 159
-156 49 -24 68 -28 146 -28 79 0 96 3 142 28 115 60 175 159 191 314 23 229
169 375 391 393 114 10 193 44 257 112 66 71 88 126 89 223 0 71 -4 88 -33
147 -59 120 -161 183 -297 183 -67 0 -89 -5 -137 -28 -123 -60 -182 -154 -197
-308 -13 -137 -40 -200 -120 -280 -91 -91 -149 -114 -291 -114 -97 0 -110 2
-173 32 -237 112 -309 417 -147 622 79 99 174 145 330 160 88 8 109 14 156 42
103 63 164 168 164 286 0 98 -29 173 -89 233 -65 64 -126 90 -253 106 -248 30
-374 159 -398 406 -10 104 -36 168 -93 226 -52 54 -115 87 -192 101 -32 6 -61
11 -64 10 -3 0 -28 -6 -56 -13z m192 -82 c88 -42 153 -142 153 -233 0 -130 51
-250 144 -339 88 -85 165 -120 293 -133 152 -17 227 -60 277 -161 49 -97 32
-217 -41 -298 -53 -59 -114 -85 -218 -94 -191 -17 -322 -102 -400 -260 -91
-182 -61 -386 77 -532 92 -98 200 -144 337 -144 133 0 229 38 324 129 98 93
134 171 147 318 6 71 14 103 36 143 91 168 292 199 427 67 84 -82 107 -175 68
-277 -43 -113 -127 -173 -256 -185 -152 -14 -243 -55 -335 -151 -81 -84 -118
-164 -132 -286 -14 -126 -32 -173 -89 -230 -104 -104 -274 -102 -382 6 -47 47
-68 98 -79 190 -23 209 -102 336 -258 416 -76 39 -132 52 -215 52 -90 -1 -186
-31 -264 -83 -75 -50 -121 -105 -163 -195 -27 -58 -32 -84 -36 -164 -7 -161
37 -270 150 -375 86 -80 199 -125 312 -125 114 0 230 -86 261 -195 50 -171
-75 -344 -249 -345 -91 0 -134 17 -198 80 -63 63 -88 124 -88 216 0 61 -27
156 -63 216 -77 133 -248 226 -416 229 -92 1 -179 55 -226 140 -26 47 -30 64
-30 134 0 69 4 86 27 125 55 93 125 134 248 145 173 15 297 83 380 207 60 90
83 178 78 291 -3 81 -8 102 -39 167 -58 121 -147 205 -259 246 -313 112 -639
-119 -640 -455 -1 -87 -70 -190 -156 -231 -56 -28 -160 -30 -221 -5 -54 22
-135 109 -151 162 -16 52 -15 138 2 185 35 99 149 178 255 178 261 0 471 216
471 485 0 63 52 160 107 199 58 41 97 54 159 55 69 1 134 -23 188 -70 61 -54
84 -107 95 -220 15 -148 57 -237 153 -323 209 -189 529 -158 694 67 64 87 87
171 82 300 -3 89 -8 110 -36 170 -38 81 -130 182 -202 221 -53 29 -160 56
-226 56 -234 1 -356 298 -190 463 89 89 198 107 313 51z"/>
<path d="M4288 3740 c-103 -18 -198 -94 -245 -197 -22 -49 -25 -65 -21 -141 5
-105 33 -166 103 -231 64 -59 121 -82 229 -91 140 -12 216 -48 303 -144 181
-197 113 -516 -136 -639 -61 -30 -73 -32 -166 -32 -131 1 -191 24 -281 107
-89 84 -123 155 -134 284 -7 81 -14 109 -42 163 -63 124 -179 189 -319 179
-175 -13 -290 -138 -309 -336 -14 -148 -64 -246 -160 -317 -76 -56 -129 -74
-242 -85 -160 -15 -247 -71 -309 -198 -34 -67 -34 -206 -1 -273 36 -74 87
-125 160 -161 58 -29 76 -33 142 -32 91 1 165 30 234 94 65 60 86 110 101 245
11 94 19 125 46 175 42 80 141 172 207 194 182 61 329 29 451 -98 70 -74 95
-123 111 -219 20 -130 -27 -263 -127 -358 -73 -69 -145 -100 -257 -110 -131
-12 -177 -31 -245 -98 -96 -94 -128 -200 -97 -320 36 -142 166 -251 300 -251
217 0 393 -145 426 -350 5 -36 10 -79 10 -97 0 -103 98 -232 207 -273 47 -18
73 -21 138 -18 100 6 163 35 228 108 64 71 90 145 85 235 -6 89 -34 152 -95
213 -69 69 -128 94 -237 103 -123 9 -192 37 -266 106 -43 39 -71 77 -97 131
-36 73 -38 80 -38 176 0 92 3 107 31 166 41 87 116 162 201 203 63 30 76 32
173 32 99 0 109 -2 173 -33 135 -67 210 -171 228 -315 24 -191 49 -246 145
-320 159 -122 398 -67 489 114 18 34 30 84 40 158 32 247 162 378 397 402 216
22 345 152 341 344 -2 153 -92 266 -247 310 -115 33 -234 -3 -322 -97 -62 -66
-84 -122 -94 -232 -12 -136 -46 -212 -126 -287 -86 -80 -181 -113 -307 -107
-110 5 -186 39 -262 119 -163 170 -160 410 7 581 67 68 131 95 271 113 132 16
174 33 240 99 65 65 91 125 95 218 7 129 -43 231 -145 296 -53 34 -98 46 -223
62 -100 12 -168 42 -238 105 -80 72 -132 199 -132 321 0 112 -92 241 -200 281
-69 26 -132 33 -192 23z m166 -75 c89 -38 166 -145 166 -235 0 -68 27 -178 57
-237 36 -72 136 -166 216 -204 47 -22 90 -32 158 -40 115 -12 170 -31 222 -78
110 -99 117 -284 13 -394 -38 -41 -122 -77 -181 -77 -288 -1 -519 -261 -475
-535 28 -174 113 -288 270 -363 65 -32 86 -37 166 -40 150 -7 246 30 355 135
91 88 127 165 138 302 11 121 33 174 98 231 53 46 104 64 188 64 75 -1 125
-23 187 -85 47 -47 78 -118 78 -179 0 -48 -29 -126 -65 -173 -49 -64 -114 -93
-240 -107 -133 -14 -216 -53 -303 -144 -83 -87 -120 -165 -134 -288 -17 -158
-51 -219 -149 -273 -100 -56 -237 -36 -318 46 -48 48 -71 106 -81 209 -15 143
-67 248 -165 339 -137 125 -364 147 -538 53 -60 -32 -156 -134 -186 -196 -119
-244 -20 -527 224 -642 56 -27 90 -35 171 -43 67 -6 115 -16 141 -30 160 -81
201 -286 86 -421 -103 -119 -298 -121 -404 -3 -47 52 -66 107 -78 222 -13 117
-49 199 -123 277 -92 98 -177 137 -331 153 -111 11 -156 31 -214 94 -42 45
-73 121 -73 177 0 45 28 125 59 168 48 66 104 92 229 107 120 15 172 32 249
82 145 95 230 286 203 457 -41 255 -290 439 -536 397 -176 -31 -325 -160 -377
-326 -9 -27 -18 -84 -22 -125 -15 -178 -116 -282 -274 -282 -80 1 -128 19
-186 73 -61 56 -88 125 -83 208 5 76 25 125 74 175 54 56 106 77 208 86 146
13 242 56 327 147 80 84 117 171 130 300 10 109 24 146 75 203 49 55 105 82
179 87 112 9 223 -55 267 -155 11 -25 24 -85 29 -140 7 -78 16 -111 44 -170
40 -85 122 -172 201 -214 237 -127 526 -34 645 207 43 88 56 168 41 266 -31
214 -184 369 -392 399 -155 23 -182 29 -221 58 -86 63 -119 129 -119 236 0 74
24 126 84 185 78 77 189 98 290 56z"/>
<path d="M6435 3712 c-71 -34 -128 -93 -162 -169 -22 -49 -25 -65 -21 -141 5
-105 33 -166 103 -231 65 -60 120 -82 231 -91 166 -14 290 -94 358 -231 81
-161 44 -356 -90 -478 -64 -59 -120 -87 -200 -102 -135 -25 -253 10 -355 107
-83 80 -118 154 -129 275 -10 108 -21 147 -62 206 -90 133 -275 181 -422 109
-108 -53 -169 -153 -185 -302 -27 -249 -155 -381 -395 -403 -158 -15 -251 -72
-308 -189 -29 -59 -33 -76 -33 -147 1 -139 65 -238 194 -298 157 -74 341 -12
425 144 22 40 31 76 42 165 15 135 43 201 114 274 91 93 248 144 367 120 92
-19 154 -54 222 -124 70 -73 95 -122 111 -217 21 -122 -19 -247 -111 -344 -75
-80 -151 -114 -272 -125 -116 -10 -186 -39 -251 -103 -96 -96 -125 -209 -87
-335 42 -138 143 -214 309 -233 260 -29 385 -150 416 -399 16 -132 46 -201
113 -259 162 -143 424 -89 520 107 24 49 28 69 28 142 0 68 -5 94 -23 131 -59
121 -161 187 -310 200 -102 8 -179 36 -247 87 -161 122 -203 371 -93 544 39
62 94 110 170 150 60 31 68 33 173 33 93 0 118 -3 159 -23 108 -49 196 -141
231 -241 8 -23 19 -87 24 -141 10 -110 30 -157 93 -226 22 -24 66 -56 97 -71
48 -24 68 -28 141 -28 73 0 93 4 141 28 112 55 189 173 189 291 0 111 60 239
147 316 74 65 138 91 248 100 120 10 203 47 264 116 60 69 84 141 79 239 -6
98 -34 161 -103 224 -70 64 -124 86 -220 86 -68 0 -89 -4 -137 -28 -127 -62
-186 -153 -198 -307 -10 -111 -20 -146 -68 -218 -42 -65 -100 -115 -172 -149
-115 -56 -294 -39 -404 37 -112 76 -185 232 -173 366 20 213 176 364 395 380
111 8 164 28 225 84 76 70 110 136 115 230 5 98 -22 174 -87 243 -66 71 -120
94 -253 112 -138 18 -213 51 -282 125 -70 75 -104 156 -115 273 -11 115 -39
183 -100 243 -65 65 -120 88 -226 92 -82 3 -95 1 -150 -26z m269 -60 c88 -48
146 -141 146 -236 0 -66 27 -173 56 -226 53 -97 165 -190 269 -223 28 -9 86
-19 130 -22 125 -11 199 -53 251 -141 53 -90 39 -229 -31 -311 -44 -51 -125
-93 -180 -93 -312 0 -545 -276 -484 -572 26 -123 128 -262 234 -316 136 -69
312 -69 447 -1 56 28 160 131 191 187 32 60 57 151 57 212 0 128 81 243 194
275 177 51 350 -77 349 -260 -1 -99 -42 -173 -125 -226 -40 -26 -67 -34 -148
-45 -111 -14 -152 -25 -223 -61 -60 -30 -153 -124 -189 -190 -33 -59 -58 -159
-58 -229 0 -37 -9 -68 -31 -113 -77 -154 -263 -196 -406 -91 -60 44 -92 113
-104 220 -10 104 -35 181 -79 250 -110 171 -334 251 -531 190 -241 -74 -378
-326 -314 -575 52 -199 247 -345 464 -345 101 0 215 -89 245 -191 28 -94 15
-168 -42 -244 -102 -135 -301 -142 -415 -16 -50 55 -57 76 -73 204 -17 141
-50 215 -137 302 -59 59 -148 114 -209 129 -14 3 -67 10 -116 15 -99 10 -151
32 -201 82 -55 55 -75 105 -75 189 0 64 4 83 29 128 28 51 72 94 124 122 14 7
75 19 135 26 136 17 229 58 309 137 254 252 151 671 -193 783 -77 24 -207 23
-283 -5 -118 -42 -237 -151 -287 -264 -11 -25 -25 -84 -31 -129 -21 -174 -47
-228 -133 -282 -40 -25 -60 -30 -129 -34 -70 -4 -90 -1 -130 18 -52 25 -96 70
-127 131 -91 178 49 389 259 389 108 0 214 44 303 128 95 89 135 175 148 323
9 109 28 154 87 211 106 102 272 103 377 1 53 -51 76 -108 86 -211 11 -105 19
-133 60 -211 58 -109 168 -193 297 -226 318 -83 624 198 573 525 -16 100 -59
189 -125 255 -94 94 -173 129 -328 145 -134 14 -219 70 -262 174 -17 41 -20
152 -4 193 58 154 238 223 383 145z"/>
<path d="M0 3685 c0 -25 4 -35 15 -35 22 0 97 -79 119 -125 11 -23 23 -79 28
-132 10 -112 35 -184 92 -260 83 -113 190 -169 358 -189 90 -10 118 -17 156
-41 91 -56 138 -147 130 -253 -10 -132 -123 -249 -243 -250 -131 -1 -267 -55
-352 -140 -184 -184 -187 -482 -7 -664 97 -97 212 -141 357 -134 81 3 102 8
169 40 166 79 257 209 273 390 10 113 30 164 89 224 41 42 63 56 110 69 149
43 298 -40 342 -191 26 -89 3 -173 -67 -249 -53 -58 -108 -82 -215 -93 -158
-18 -257 -67 -340 -170 -77 -94 -114 -192 -114 -302 0 -33 -8 -73 -21 -100
-80 -178 -304 -225 -436 -93 -59 58 -81 112 -92 219 -20 194 -113 331 -274
404 -61 28 -77 26 -77 -9 0 -23 5 -30 28 -36 41 -10 116 -61 162 -111 61 -66
87 -132 104 -261 17 -131 43 -189 111 -252 72 -66 124 -86 225 -85 97 1 152
20 215 75 72 63 105 140 123 291 26 212 169 348 389 369 64 6 113 17 148 33
261 119 265 483 7 604 -47 22 -71 27 -137 27 -68 0 -89 -5 -140 -29 -124 -61
-182 -150 -195 -299 -9 -108 -35 -183 -88 -252 -82 -108 -206 -161 -357 -153
-99 6 -178 40 -246 108 -184 184 -169 461 33 621 65 51 143 78 253 89 112 10
171 37 236 107 61 65 84 127 84 228 0 95 -29 168 -90 229 -48 48 -147 96 -200
96 -125 0 -232 39 -312 113 -87 80 -120 152 -134 295 -10 105 -30 160 -80 217
-32 36 -113 95 -131 95 -4 0 -8 -16 -8 -35z"/>
<path d="M10817 3660 c-149 -132 -151 -354 -4 -486 27 -24 53 -44 58 -44 5 0
9 15 9 33 0 25 -7 39 -29 55 -16 12 -42 47 -58 79 -53 109 -34 221 52 307 25
25 35 44 35 66 0 16 -4 30 -9 30 -4 0 -29 -18 -54 -40z"/>
<path d="M0 3094 c0 -26 7 -32 58 -54 72 -31 157 -115 197 -195 28 -56 30 -67
30 -175 0 -107 -2 -119 -29 -175 -39 -79 -127 -165 -200 -195 -49 -21 -56 -27
-56 -52 0 -36 12 -36 96 6 91 46 166 121 211 213 32 65 37 84 41 171 5 109
-10 180 -56 265 -48 88 -174 190 -266 213 -23 6 -26 3 -26 -22z"/>
<path d="M10189 2986 c-87 -31 -165 -103 -201 -184 -12 -26 -23 -83 -28 -136
-9 -105 -33 -175 -84 -244 -74 -101 -166 -149 -314 -161 -61 -6 -117 -17 -145
-29 -64 -28 -128 -91 -163 -159 -26 -51 -29 -68 -29 -148 0 -78 4 -97 28 -147
54 -111 170 -181 297 -180 184 1 330 144 330 322 0 116 63 249 150 319 96 77
223 113 326 93 344 -70 463 -477 208 -712 -68 -63 -141 -92 -253 -101 -76 -7
-108 -15 -158 -39 -76 -38 -145 -113 -174 -190 -44 -115 -6 -267 87 -349 65
-57 121 -80 237 -95 138 -18 211 -51 281 -127 78 -84 105 -146 117 -265 11
-125 47 -203 118 -263 27 -23 52 -41 55 -41 3 0 6 16 6 35 0 28 -7 42 -37 68
-50 44 -72 99 -82 209 -17 173 -86 288 -231 380 -58 37 -124 56 -232 68 -96
10 -146 31 -197 82 -103 102 -107 261 -11 371 50 56 112 83 215 92 175 15 292
80 377 209 105 162 104 361 -3 524 -74 113 -185 183 -319 202 -157 22 -303
-30 -410 -147 -75 -82 -110 -161 -125 -286 -15 -119 -30 -160 -79 -215 -97
-107 -277 -111 -385 -9 -148 140 -84 394 113 452 27 8 70 15 95 15 110 0 221
49 307 135 93 92 144 211 144 336 0 72 44 165 100 209 102 81 236 81 339 0 69
-55 98 -118 111 -245 12 -123 53 -215 130 -292 42 -42 151 -113 174 -113 3 0
6 15 6 33 0 28 -6 34 -43 51 -59 28 -143 115 -173 181 -17 36 -28 86 -35 149
-11 112 -27 161 -71 222 -77 108 -248 163 -369 120z"/>
<path d="M0 2942 c0 -21 7 -33 26 -43 44 -23 103 -99 119 -152 19 -64 19 -91
0 -154 -16 -54 -90 -147 -125 -158 -23 -7 -29 -65 -7 -65 19 0 71 35 111 74
116 116 122 313 14 438 -29 33 -107 88 -125 88 -8 0 -13 -11 -13 -28z"/>
<path d="M10810 1592 c-79 -39 -152 -117 -197 -209 -33 -70 -38 -88 -41 -174
-7 -156 35 -265 138 -363 46 -44 142 -106 165 -106 3 0 5 15 5 33 0 29 -5 35
-36 46 -52 19 -145 116 -180 186 -27 56 -29 68 -29 175 0 103 3 121 26 170 35
73 100 145 166 182 45 25 53 34 53 59 0 16 -3 29 -7 29 -5 -1 -33 -13 -63 -28z"/>
<path d="M1994 1490 c-222 -88 -281 -373 -112 -542 63 -64 121 -88 231 -98 50
-5 106 -13 122 -18 101 -31 209 -124 251 -216 75 -165 42 -340 -88 -470 -85
-84 -155 -111 -289 -111 -90 0 -99 2 -172 38 -136 67 -212 181 -228 341 -14
148 -34 193 -120 270 -137 123 -340 112 -463 -25 -52 -58 -86 -140 -86 -207 0
-109 -53 -236 -128 -308 -75 -72 -150 -104 -278 -116 -60 -6 -113 -15 -118
-19 -6 -5 55 -9 141 -9 145 0 152 1 199 27 74 41 160 132 195 206 30 65 49
149 49 222 0 50 37 131 80 173 131 132 354 96 434 -71 18 -37 28 -81 35 -152
17 -163 83 -272 222 -365 60 -40 60 -40 245 -40 184 0 185 0 227 27 167 108
237 230 237 411 0 166 -70 299 -208 394 -60 41 -133 65 -222 73 -104 9 -161
29 -213 75 -61 54 -90 118 -90 200 0 81 18 125 78 189 56 60 117 86 197 85
143 -2 268 -128 268 -270 0 -258 216 -474 474 -474 194 0 325 -208 242 -385
-49 -106 -123 -152 -270 -165 -95 -9 -175 -34 -230 -72 -41 -28 -86 -70 -86
-80 0 -17 74 -8 94 11 48 45 124 72 229 82 79 8 116 17 164 40 116 56 183 165
183 298 0 128 -58 229 -167 288 -53 30 -77 36 -165 44 -122 11 -200 43 -274
111 -86 79 -120 155 -134 293 -10 111 -35 173 -93 233 -67 69 -126 95 -227 99
-67 2 -96 -1 -136 -17z"/>
<path d="M4221 1488 c-66 -25 -137 -93 -171 -163 -21 -42 -25 -64 -25 -145 0
-111 19 -162 88 -230 64 -64 122 -89 246 -104 187 -23 294 -94 363 -240 30
-65 33 -79 32 -166 0 -111 -20 -171 -81 -251 -146 -193 -445 -212 -613 -39
-75 77 -111 159 -119 272 -14 180 -95 289 -246 333 -153 45 -308 -22 -384
-164 -27 -50 -33 -77 -41 -161 -15 -173 -87 -288 -224 -355 -62 -31 -89 -38
-182 -47 -60 -6 -113 -15 -118 -19 -6 -5 57 -9 146 -9 157 0 157 0 217 40 141
94 221 231 221 380 0 108 63 216 153 262 178 90 396 -50 397 -255 1 -153 82
-295 222 -388 59 -39 59 -39 253 -39 106 0 195 3 197 8 2 4 27 22 56 41 245
156 281 512 72 721 -89 89 -211 140 -335 140 -68 0 -135 29 -185 80 -111 110
-106 289 10 393 56 52 102 69 177 69 72 -1 131 -23 187 -72 54 -48 78 -101 87
-200 20 -197 98 -326 249 -413 57 -32 104 -44 219 -56 69 -7 103 -16 136 -35
88 -52 134 -134 135 -238 0 -81 -23 -141 -76 -193 -52 -52 -106 -73 -217 -85
-98 -10 -176 -35 -231 -72 -41 -28 -86 -70 -86 -80 0 -15 87 -9 93 6 3 8 35
29 71 46 53 26 85 34 164 42 120 10 201 46 261 114 106 121 109 313 8 438 -55
67 -138 105 -252 117 -145 15 -227 51 -302 132 -70 76 -98 148 -112 287 -15
144 -93 257 -207 299 -73 28 -180 27 -253 -1z"/>
<path d="M6469 1497 c-154 -57 -247 -216 -218 -374 14 -73 30 -104 87 -166 66
-70 125 -97 237 -107 150 -15 233 -53 310 -142 194 -226 100 -562 -186 -658
-167 -57 -363 12 -461 162 -47 71 -58 107 -68 215 -13 152 -76 250 -199 311
-48 23 -68 27 -141 27 -104 0 -157 -22 -225 -90 -66 -65 -95 -134 -106 -252
-14 -153 -75 -260 -187 -331 -60 -39 -134 -59 -244 -68 -49 -3 -88 -10 -88
-15 0 -5 67 -9 150 -9 150 0 150 0 202 35 29 19 67 47 85 62 78 68 143 212
143 317 0 218 210 360 393 266 99 -51 144 -128 157 -269 16 -174 82 -281 228
-377 52 -34 52 -34 238 -34 186 0 186 0 255 46 82 54 130 108 170 190 101 213
27 469 -174 598 -70 45 -131 65 -236 75 -103 11 -143 26 -196 72 -82 72 -111
214 -64 314 25 52 93 118 146 140 53 22 152 21 206 -3 105 -46 155 -124 168
-258 10 -114 32 -182 82 -256 83 -122 205 -189 377 -207 131 -13 194 -49 248
-140 24 -40 27 -56 27 -131 0 -74 -3 -91 -27 -131 -32 -54 -87 -106 -135 -126
-19 -7 -75 -18 -126 -23 -102 -9 -162 -28 -222 -67 -47 -30 -95 -73 -95 -85 0
-17 77 -8 94 11 32 36 135 73 225 83 167 16 252 67 311 182 32 64 35 76 35
160 0 79 -4 98 -28 143 -59 114 -148 170 -291 184 -142 13 -205 39 -287 116
-85 79 -113 144 -128 291 -16 152 -75 248 -187 303 -59 29 -196 38 -255 16z"/>
<path d="M8699 1497 c-119 -44 -195 -135 -220 -260 -22 -110 38 -257 130 -321
57 -40 135 -66 195 -66 107 0 230 -54 303 -133 157 -170 144 -422 -28 -582
-165 -152 -430 -137 -579 32 -64 73 -90 136 -101 249 -17 166 -79 267 -198
323 -46 21 -71 25 -141 26 -101 0 -153 -20 -224 -85 -68 -63 -96 -128 -106
-250 -16 -174 -88 -288 -225 -356 -64 -31 -88 -37 -189 -47 -64 -6 -116 -14
-116 -19 0 -4 69 -8 154 -8 155 0 155 0 213 39 140 93 223 241 223 401 1 96
63 194 155 243 57 31 173 30 232 -1 97 -51 148 -130 158 -247 16 -185 75 -292
212 -385 74 -50 74 -50 259 -50 184 0 184 0 249 41 116 73 184 170 212 303 25
119 -1 254 -67 351 -39 56 -128 139 -179 165 -49 25 -157 50 -217 50 -173 1
-308 178 -260 342 22 77 74 141 141 173 180 88 395 -44 395 -244 0 -55 24
-160 46 -204 51 -100 159 -199 259 -236 30 -12 97 -25 148 -29 105 -10 155
-30 209 -84 61 -61 73 -92 73 -188 0 -102 -19 -146 -91 -209 -52 -45 -121 -71
-193 -71 -61 -1 -123 -15 -185 -45 -53 -25 -136 -90 -136 -106 0 -18 76 -10
94 10 34 37 132 72 234 82 115 12 182 39 241 98 62 62 93 132 99 221 5 95 -20
168 -84 239 -62 68 -129 100 -240 111 -142 15 -227 52 -301 133 -71 76 -100
151 -113 279 -14 145 -71 238 -183 295 -63 32 -198 42 -258 20z"/>
<path d="M0 1455 c0 -23 5 -35 14 -35 24 0 97 -80 122 -133 16 -35 24 -70 24
-107 0 -125 47 -238 134 -326 92 -92 215 -144 341 -144 96 0 197 -65 240 -155
44 -93 25 -218 -44 -297 -51 -58 -116 -86 -228 -97 -127 -14 -202 -43 -274
-108 -21 -19 -39 -39 -39 -44 0 -18 77 -9 95 11 37 40 120 70 241 85 135 17
176 36 247 115 124 138 113 341 -24 464 -53 48 -138 86 -192 86 -123 0 -243
48 -318 127 -79 83 -119 176 -119 278 0 70 -34 164 -78 215 -33 40 -115 100
-134 100 -4 0 -8 -16 -8 -35z"/>
<path d="M10845 1451 c-66 -40 -127 -141 -140 -233 -14 -92 29 -203 107 -279
49 -48 68 -50 68 -8 0 22 -9 38 -30 56 -53 44 -84 117 -84 198 0 81 22 133 80
189 28 27 35 41 32 65 -3 31 -3 31 -33 12z"/>
<path d="M0 863 c0 -25 7 -32 60 -57 80 -38 155 -114 194 -195 29 -62 31 -73
31 -176 0 -101 -3 -115 -30 -170 -38 -79 -124 -164 -197 -195 -46 -20 -58 -30
-58 -47 0 -20 5 -23 39 -23 22 0 43 5 46 10 4 6 24 19 45 30 55 28 132 110
167 177 43 82 57 150 51 254 -5 75 -11 100 -42 164 -56 119 -167 216 -283 250
-20 6 -23 3 -23 -22z"/>
<path d="M10200 756 c-61 -16 -112 -49 -154 -98 -54 -63 -77 -121 -87 -223
-15 -160 -68 -259 -179 -333 -76 -51 -135 -69 -251 -78 -144 -11 -113 -24 55
-24 155 0 155 0 217 42 67 46 117 99 156 166 39 66 54 118 63 218 9 104 29
150 87 205 44 43 84 65 135 74 40 8 74 37 63 54 -8 14 -48 13 -105 -3z"/>
<path d="M10326 751 c-11 -12 -14 -21 -7 -26 6 -3 11 -3 11 0 0 4 12 -2 28
-12 15 -10 41 -25 57 -33 17 -8 53 -38 80 -67 43 -43 53 -61 63 -110 7 -33 12
-78 12 -100 0 -98 78 -259 154 -316 42 -33 134 -87 146 -87 6 0 10 15 10 33 0
29 -4 35 -37 46 -51 19 -143 114 -177 182 -19 40 -30 83 -37 150 -5 52 -16
115 -25 142 -21 63 -101 149 -167 180 -80 38 -92 40 -111 18z"/>
<path d="M0 712 c0 -21 11 -35 48 -62 97 -72 134 -211 85 -320 -19 -43 -101
-130 -123 -130 -5 0 -10 -13 -10 -30 0 -38 13 -38 72 -1 115 73 170 228 130
367 -16 56 -76 135 -132 173 -56 38 -70 39 -70 3z"/>
<path d="M10102 533 c-9 -3 3 -15 30 -31 61 -35 96 -69 129 -127 24 -42 29
-46 29 -25 0 48 -64 127 -136 166 -21 12 -45 19 -52 17z"/>
<path d="M10448 493 c-61 -51 -97 -104 -98 -143 0 -21 4 -18 26 20 29 51 92
120 110 120 7 0 14 7 18 15 9 24 -19 18 -56 -12z"/>
<path d="M1212 135 c-62 -22 -171 -97 -180 -122 -6 -21 69 -16 92 6 37 35 122
70 187 80 112 15 216 -9 292 -70 30 -25 45 -30 79 -27 42 3 42 3 8 36 -83 84
-186 122 -322 121 -72 0 -107 -5 -156 -24z"/>
<path d="M3475 146 c-83 -27 -215 -112 -215 -137 0 -15 87 -11 93 4 3 7 31 27
64 45 74 39 167 55 248 42 65 -11 183 -63 192 -86 6 -16 93 -20 93 -5 0 18
-86 84 -150 115 -59 28 -75 31 -175 33 -71 2 -124 -2 -150 -11z"/>
<path d="M5695 142 c-68 -23 -133 -63 -174 -106 -35 -36 -35 -36 11 -36 30 0
48 5 51 14 9 24 128 75 192 84 114 14 241 -18 302 -77 25 -24 108 -31 101 -8
-9 28 -130 107 -194 127 -84 26 -218 27 -289 2z"/>
<path d="M7908 136 c-36 -13 -81 -34 -100 -46 -43 -30 -88 -72 -88 -82 0 -14
77 -9 90 7 45 54 200 101 293 89 69 -9 143 -38 189 -75 27 -21 48 -29 77 -29
23 0 41 4 41 10 0 11 -92 81 -139 105 -103 52 -251 61 -363 21z"/>
<path d="M10146 139 c-32 -11 -70 -27 -85 -36 -45 -28 -111 -84 -111 -94 0
-12 77 -12 85 1 21 34 137 83 225 94 83 12 223 -30 277 -83 25 -24 108 -31
101 -8 -9 27 -126 103 -191 125 -89 29 -217 30 -301 1z"/>
<path d="M1300 23 c-19 -3 -39 -9 -44 -14 -6 -5 37 -9 112 -9 126 0 162 12 70
24 -54 6 -77 6 -138 -1z"/>
<path d="M3528 23 c-21 -2 -38 -8 -38 -14 0 -5 53 -9 122 -9 76 0 118 4 113 9
-12 11 -143 21 -197 14z"/>
<path d="M5755 23 c-16 -2 -34 -9 -39 -14 -6 -5 38 -9 114 -9 82 0 121 3 114
10 -11 11 -144 21 -189 13z"/>
<path d="M7983 23 c-24 -2 -43 -8 -43 -14 0 -5 52 -9 122 -9 75 0 118 4 113 9
-12 11 -133 20 -192 14z"/>
<path d="M10215 23 c-16 -2 -34 -9 -39 -14 -6 -5 38 -9 114 -9 82 0 121 3 114
10 -11 11 -144 21 -189 13z"/>
</g>
</svg>
